<?xml version="1.0" encoding="UTF-8" standalone="no"?>
<svg
   width="106"
   height="37"
   fill="none"
   version="1.1"
   id="svg10"
   sodipodi:docname="ebpf-logo.svg"
   xmlns:inkscape="http://www.inkscape.org/namespaces/inkscape"
   xmlns:sodipodi="http://sodipodi.sourceforge.net/DTD/sodipodi-0.dtd"
   xmlns="http://www.w3.org/2000/svg"
   xmlns:svg="http://www.w3.org/2000/svg">
  <defs
     id="defs10" />
  <sodipodi:namedview
     id="namedview10"
     pagecolor="#505050"
     bordercolor="#eeeeee"
     borderopacity="1"
     inkscape:showpageshadow="0"
     inkscape:pageopacity="0"
     inkscape:pagecheckerboard="0"
     inkscape:deskcolor="#d1d1d1" />
  <path
     fill-rule="evenodd"
     clip-rule="evenodd"
     d="m 24.126407,0.57726958 c 0.484,0.244 0.676,0.83000002 0.428,1.30700002 -0.489,0.942 -0.753,2.294 -0.855,3.684 -0.1,1.371 -0.033,2.669 0.07,3.433 a 0.973,0.973 0 0 1 -0.848,1.0900004 0.982,0.982 0 0 1 -1.104,-0.8360004 c -0.12,-0.899 -0.19,-2.329 -0.081,-3.827 0.108,-1.48 0.397,-3.14 1.066,-4.43000002 a 0.99,0.99 0 0 1 1.324,-0.421 z"
     fill="#1a1a1a"
     id="path1" />
  <path
     d="m 18.418407,15.94927 c 0.59,-2.77 -5.416,-3.223 -8.4939999,-3.102 -12.132,0.257 -7.061,7.595 -0.344,8.413 2.7639999,0.337 8.0999999,-1.849 8.8379999,-5.311 z"
     fill="#cfedfc"
     id="path2" />
  <path
     d="m 3.4924071,14.38527 c 0.34,-0.277 0.782,-0.528 1.337,-0.743 l 0.173,0.536 0.88,1.1 1.288,1.152 0.99,-0.145 4.9519999,-0.507 5.204,0.55 c -0.164,0.514 -0.429,0.999 -0.77,1.447 -1.54,-0.304 -5.136,-0.395 -7.09,-0.398 -0.5219999,0.606 -0.7109999,2.666 -0.7519999,3.896 a 10.652,10.652 0 0 1 -1.728,-0.337 c -0.048,-0.962 0.288,-2.337 0.533,-3.1 -1.531,0.082 -3.15,0.828 -4.044,1.348 a 6.704,6.704 0 0 1 -1.058,-1.034 l 1.985,-1.076 c -0.307,-0.153 -1.275,-1.66 -1.901,-2.69 z"
     fill="#00ace6"
     id="path3" />
  <path
     d="m 17.389407,19.29027 1.783,1.19 -8.06,11.764 -1.9369999,-1.292 -1.487,-2.164 -0.745,-3.574 1.334,-3.138 3.2009999,0.963 5.91,-3.749 z"
     fill="#ffe100"
     id="path4" />
  <path
     fill-rule="evenodd"
     clip-rule="evenodd"
     d="m 15.766407,11.47427 c 2.39,-5.0860004 8.207,-3.8390004 10.954,-2.0070004 l -7.549,11.0180004 -0.866,-0.578 c -1.1,1.258 -3.347,2.211 -4.333,2.53 0.1,1.415 1.304,2.505 1.893,2.874 l -2.48,3.62 c -2.895,-1.932 -3.7399999,-4.693 -3.8019999,-5.832 l -1.073,-0.059 c -1.897,4.243 1.078,7.531 2.9119999,8.755 l -3.2039999,4.675 0.557,-4.39 c -3.611,-3.053 -2.965,-7.666 -2.19,-9.591 -2.489,-0.487 -6.80699996,-4.049 -5.99499996,-7.074 1.41199996,-5.27 10.67999986,-5.182 15.17599986,-3.94 z m 2.654,4.46 c 0.562,-2.754 -5.427,-3.204 -8.4979999,-3.084 -1.952,0.042 -3.459,0.266 -4.585,0.618 0.501,1.536 1.663,2.3 2.228,2.498 3.5599999,-0.8 8.1839999,-0.43 10.8549999,-0.031 z m -0.225,0.728 c -1.862,-0.239 -4.638,-0.3 -6.077,-0.297 -1.956,1.317 -2.2069999,3.538 -2.04,4.932 2.648,0.045 6.94,-1.776 8.117,-4.635 z m -9.0099999,4.546 c -0.357,-2.02 0.793,-3.925 1.4979999,-4.7 -3.6199999,0.136 -5.9029999,1.15 -7.0179999,1.945 1.193,1.288 3.242,2.39 5.52,2.755 z m -6.155,-3.588 c 0.896,-0.54 2.5,-1.036 3.372,-1.258 -1.262,-0.93 -1.813,-1.902 -2.007,-2.531 -1.974,0.936 -2.197,2.4 -1.364,3.789 z M 36.047407,8.5252696 a 0.994,0.994 0 0 0 -1.389,0.095 c -0.704,0.799 -1.877,1.5450004 -3.146,2.1550004 -1.252,0.603 -2.498,1.026 -3.255,1.217 a 0.97,0.97 0 0 0 -0.709,1.181 0.986,0.986 0 0 0 1.198,0.7 c 0.89,-0.225 2.26,-0.694 3.63,-1.352 1.351,-0.65 2.805,-1.534 3.768,-2.6260004 a 0.962,0.962 0 0 0 -0.097,-1.37 z"
     fill="#1a1a1a"
     id="path5" />
  <path
     d="m 23.717407,19.48527 c 2.386,-1.573 5.05,3.758 6.083,6.621 4.28,11.205 -4.512,9.296 -7.785,3.45 -1.347,-2.405 -1.279,-8.104 1.703,-10.07 z"
     fill="#cfedfc"
     id="path6" />
  <path
     d="m 30.750407,32.57027 c 0.133,-0.415 0.204,-0.913 0.2,-1.501 l -0.569,0.041 -1.362,-0.396 -1.565,-0.75 -0.232,-0.962 -1.37,-4.721 -2.455,-4.561 c -0.424,0.342 -0.78,0.765 -1.075,1.244 0.86,1.297 2.285,4.556 3.017,6.343 -0.375,0.704 -2.242,1.645 -3.384,2.141 l 0.059,0.11 c 0.267,0.476 0.571,0.927 0.901,1.347 0.923,-0.314 2.091,-1.135 2.718,-1.644 0.493,1.433 0.395,3.194 0.24,4.205 0.46,0.256 0.92,0.453 1.365,0.584 l 0.272,-2.218 c 0.26,0.223 2.037,0.548 3.24,0.738 z"
     fill="#00ace6"
     id="path7" />
  <path
     d="m 20.955407,21.66827 -1.784,-1.19 -8.06,11.763 1.937,1.292 2.59,0.556 3.638,-0.65 2.455,-2.39 -2.1,-2.573 z"
     fill="#ffe100"
     id="path8" />
  <path
     fill-rule="evenodd"
     clip-rule="evenodd"
     d="m 28.901541,20.231404 c 3.892,-4.085 0.552,-8.946 -2.195,-10.7780004 l -7.549,11.0170004 0.867,0.578 c -0.774,1.476 -0.833,3.889 -0.765,4.91 -1.368,0.436 -2.842,-0.26 -3.409,-0.662 l -2.48,3.62 c 2.895,1.931 5.808,1.676 6.902,1.307 l 0.454,0.963 c -3.283,3.318 -7.484,1.82 -9.319,0.596 l -3.2029999,4.675 3.9199999,-2.146 c 4.218,2.169001 8.316,-0.142 9.838,-1.569 1.385,2.097 6.344,4.723 8.888,2.853 4.43,-3.257 0.894,-11.71 -1.95,-15.364 z m -5.184,-0.768 c 2.38,-1.54 5.036,3.774 6.067,6.631 0.689,1.803 1.039,3.266 1.128,4.428 -1.631,0.114 -2.782,-0.666 -3.18,-1.108 -0.575,-3.558 -2.644,-7.654 -4.015,-9.95 z m -0.6,0.477 c 0.918,1.616 2.01,4.134 2.543,5.454 -0.51,2.281 -2.505,3.338 -3.878,3.705 -1.03,-2.408 -0.916,-7.016 1.334,-9.159 z m -0.919,9.944 c 2.033,-0.426 3.396,-2.189 3.863,-3.124 1.22,3.366 1.118,5.834 0.785,7.152 -1.656,-0.613 -3.454,-2.079 -4.648,-4.028 z m 5.668,4.298 c 0.174,-1.021 0.044,-2.674 -0.073,-3.556 1.346,0.808 2.465,0.95 3.129,0.895 -0.145,2.155 -1.44,2.906 -3.056,2.66 z"
     fill="#1a1a1a"
     id="path9"
     sodipodi:nodetypes="cccccccccccccccccccccccccccccccccccc" />
</svg>
